<svg xmlns="http://www.w3.org/2000/svg" width="1800" height="1600" viewBox="0 0 1800 1600" role="img" aria-labelledby="title desc">
  <title id="title">Codex LOOP Orchestra 架构</title>
  <desc id="desc">分层展示根协调器规划有界任务、确定性生命周期控制、Codex Desktop 与 headless 双执行平面、机械证据、独立验证、串行集成、人工发布权和只读实时观察界面。</desc>
  <defs>
    <linearGradient id="bg" x1="0" y1="0" x2="1" y2="1"><stop offset="0" stop-color="#171817"/><stop offset="1" stop-color="#171817"/></linearGradient>
    <linearGradient id="rootFill" x1="0" y1="0" x2="1" y2="1"><stop offset="0" stop-color="#30353a"/><stop offset="1" stop-color="#30353a"/></linearGradient>
    <linearGradient id="execFill" x1="0" y1="0" x2="1" y2="1"><stop offset="0" stop-color="#29372e"/><stop offset="1" stop-color="#29372e"/></linearGradient>
    <linearGradient id="reviewFill" x1="0" y1="0" x2="1" y2="1"><stop offset="0" stop-color="#3a3038"/><stop offset="1" stop-color="#3a3038"/></linearGradient>
    <filter id="shadow" x="-20%" y="-20%" width="140%" height="140%"><feDropShadow dx="0" dy="5" stdDeviation="8" flood-color="#000" flood-opacity=".08"/></filter>
    <marker id="arrow" viewBox="0 0 10 10" refX="9" refY="5" markerWidth="8" markerHeight="8" orient="auto-start-reverse"><path d="M 0 0 L 10 5 L 0 10 z" fill="#8d918c"/></marker>
    <marker id="arrowGreen" viewBox="0 0 10 10" refX="9" refY="5" markerWidth="8" markerHeight="8" orient="auto-start-reverse"><path d="M 0 0 L 10 5 L 0 10 z" fill="#8f8b87"/></marker>
    <marker id="arrowRed" viewBox="0 0 10 10" refX="9" refY="5" markerWidth="8" markerHeight="8" orient="auto-start-reverse"><path d="M 0 0 L 10 5 L 0 10 z" fill="#9a6f6a"/></marker>
    <marker id="arrowPurple" viewBox="0 0 10 10" refX="9" refY="5" markerWidth="8" markerHeight="8" orient="auto-start-reverse"><path d="M 0 0 L 10 5 L 0 10 z" fill="#8f8b87"/></marker>
    <style>
      .title{font:700 42px "Microsoft YaHei","Noto Sans CJK SC",Segoe UI,Arial,sans-serif;fill:#f3f0e8;letter-spacing:-.5px}
      .subtitle{font:400 21px "Microsoft YaHei","Noto Sans CJK SC",Segoe UI,Arial,sans-serif;fill:#aaa79f}
      .layer{font:700 18px "Microsoft YaHei","Noto Sans CJK SC",Segoe UI,Arial,sans-serif;fill:#8d918c;letter-spacing:1.6px}
      .cardTitle{font:700 24px "Microsoft YaHei","Noto Sans CJK SC",Segoe UI,Arial,sans-serif;fill:#f3f0e8}
      .body{font:400 18px "Microsoft YaHei","Noto Sans CJK SC",Segoe UI,Arial,sans-serif;fill:#d3d0c8}
      .small{font:400 16px "Microsoft YaHei","Noto Sans CJK SC",Segoe UI,Arial,sans-serif;fill:#aaa79f}
      .badge{font:700 15px "Microsoft YaHei","Noto Sans CJK SC",Segoe UI,Arial,sans-serif;letter-spacing:.4px}
      .metric{font:700 30px Inter,Segoe UI,Arial,sans-serif;fill:#f3f0e8}
      .metricLabel{font:400 15px "Microsoft YaHei","Noto Sans CJK SC",Segoe UI,Arial,sans-serif;fill:#aaa79f}
      .edge{fill:none;stroke:#8d918c;stroke-width:3;marker-end:url(#arrow)}
      .edgeGreen{fill:none;stroke:#8f8b87;stroke-width:3;marker-end:url(#arrowGreen)}
      .edgeRed{fill:none;stroke:#9a6f6a;stroke-width:3;stroke-dasharray:10 8;marker-end:url(#arrowRed)}
      .edgePurple{fill:none;stroke:#8f8b87;stroke-width:2;stroke-dasharray:7 8;marker-end:url(#arrowPurple)}
      .observe{fill:none;stroke:#686d68;stroke-width:2;stroke-dasharray:7 8;marker-end:url(#arrow)}
      [fill="#111b2b"]{fill:#30353a}[fill="#151b24"]{fill:#30353a}[fill="#171d27"]{fill:#3a3029}
      [fill="#1f1a16"]{fill:#3a3029}[fill="#2b241a"]{fill:#312a25}[fill="#20252d"]{fill:#303039}
      [fill="#2a171a"]{fill:#382f31}[fill="#1d1a35"]{fill:#303039}[fill="#1f6feb"]{fill:#3b4146}
      [fill="#238636"]{fill:#33453a}[fill="#8957e5"]{fill:#493d47}
      [stroke="#2f81f7"],[stroke="#58a6ff"]{stroke:#30353a}[stroke="#475569"]{stroke:#30353a}
      [stroke="#3d4b60"]{stroke:#3a3029}[stroke="#d29922"]{stroke:#3a3029}[stroke="#6f5424"]{stroke:#312a25}
      [stroke="#3fb950"],[stroke="#56d364"]{stroke:#29372e}[stroke="#bc8cff"],[stroke="#8b7cf6"]{stroke:#3a3038}
      [stroke="#ff7b72"]{stroke:#9a6f6a}[stroke="#6e7681"]{stroke:#303039}[stroke="#30363d"]{stroke:#3a3d39}
      [stroke="#f0f6fc"]{stroke:#303039}
      [fill="#79c0ff"],[fill="#7ee787"],[fill="#bc8cff"],[fill="#d2a8ff"]{fill:#d8d3cb}
      [fill="#ff7b72"]{fill:#b48882}
    </style>
  </defs>

  <rect width="1800" height="1600" fill="url(#bg)"/>

  <text x="70" y="68" class="title">Codex LOOP Orchestra</text>
  <text x="70" y="104" class="subtitle">一个可安装的 Codex 控制层：持续补位并行执行，以独立模型验证结果，并实时观察全部任务。</text>

  <g filter="url(#shadow)">
    <rect x="70" y="132" width="380" height="84" rx="15" fill="#111b2b" stroke="#2f81f7"/>
    <text x="94" y="168" class="metric">100+</text><text x="185" y="166" class="metricLabel">已测试并发</text><text x="94" y="194" class="metricLabel">Desktop + WSL / CLI 智能体</text>
    <rect x="470" y="132" width="380" height="84" rx="15" fill="#111b2b" stroke="#2f81f7"/>
    <text x="494" y="168" class="metric">20</text><text x="555" y="166" class="metricLabel">单父任务默认值</text><text x="494" y="194" class="metricLabel">持续补位的保守公开配置</text>
    <rect x="870" y="132" width="380" height="84" rx="15" fill="#111b2b" stroke="#d29922"/>
    <text x="894" y="168" class="metric">≈75%</text><text x="1010" y="166" class="metricLabel">根对话 token 降幅</text><text x="894" y="194" class="metricLabel">根模型只承担规划与裁决</text>
    <rect x="1270" y="132" width="460" height="84" rx="15" fill="#111b2b" stroke="#6e7681"/>
    <text x="1294" y="168" class="metric">80</text><text x="1355" y="166" class="metricLabel">单机默认总目标</text><text x="1294" y="194" class="metricLabel">Desktop 与 WSL / CLI 双环境合计</text>
  </g>

  <text x="70" y="282" class="layer">任务入口</text>
  <rect x="265" y="242" width="1270" height="78" rx="16" fill="#151b24" stroke="#475569"/>
  <text x="900" y="274" text-anchor="middle" class="cardTitle">人类任务</text>
  <text x="900" y="300" text-anchor="middle" class="body">一个目标进入系统；最终合并与发布仍只能由人类触发。</text>
  <path class="edge" d="M900 320 V348"/>

  <text x="70" y="394" class="layer">根协调层</text>
  <rect x="265" y="348" width="1270" height="96" rx="16" fill="url(#rootFill)" stroke="#58a6ff" stroke-width="2" filter="url(#shadow)"/>
  <rect x="289" y="369" width="150" height="30" rx="15" fill="#1f6feb" opacity=".28"/>
  <text x="364" y="390" text-anchor="middle" class="badge" fill="#79c0ff">协调模型家族</text>
  <text x="900" y="382" text-anchor="middle" class="cardTitle">Sol 根协调器</text>
  <text x="900" y="414" text-anchor="middle" class="body">单次规划 · 派发有界任务 · 裁决真正异常 · 综合最终结果</text>
  <path class="edge" d="M900 444 V472"/>

  <text x="70" y="518" class="layer">规划层</text>
  <rect x="265" y="472" width="615" height="94" rx="16" fill="#171d27" stroke="#3d4b60"/>
  <text x="572" y="506" text-anchor="middle" class="cardTitle">决策骨架</text><text x="572" y="536" text-anchor="middle" class="body">依赖关系、边界与验收证据</text>
  <rect x="920" y="472" width="615" height="94" rx="16" fill="#171d27" stroke="#3d4b60"/>
  <text x="1227" y="506" text-anchor="middle" class="cardTitle">Packet DAG</text><text x="1227" y="536" text-anchor="middle" class="body">自包含任务 + 显式路径所有权</text>
  <path class="edge" d="M900 566 V594"/>

  <text x="70" y="642" class="layer">控制平面</text>
  <rect x="265" y="594" width="1270" height="112" rx="16" fill="#1f1a16" stroke="#d29922"/>
  <text x="900" y="624" text-anchor="middle" class="cardTitle">确定性生命周期控制</text>
  <rect x="290" y="642" width="280" height="42" rx="10" fill="#2b241a" stroke="#6f5424"/><text x="430" y="669" text-anchor="middle" class="body">状态机</text>
  <rect x="600" y="642" width="280" height="42" rx="10" fill="#2b241a" stroke="#6f5424"/><text x="740" y="669" text-anchor="middle" class="body">预算 + 持续补位</text>
  <rect x="910" y="642" width="280" height="42" rx="10" fill="#2b241a" stroke="#6f5424"/><text x="1050" y="669" text-anchor="middle" class="body">重试 + DEAD_LETTER</text>
  <rect x="1220" y="642" width="290" height="42" rx="10" fill="#2b241a" stroke="#6f5424"/><text x="1365" y="669" text-anchor="middle" class="body">显式角色/模型 pin</text>
  <path class="edge" d="M900 706 V734"/>

  <text x="70" y="792" class="layer">执行层</text>
  <rect x="265" y="734" width="605" height="120" rx="16" fill="url(#execFill)" stroke="#3fb950" stroke-width="2" filter="url(#shadow)"/>
  <rect x="289" y="754" width="137" height="28" rx="14" fill="#238636" opacity=".34"/><text x="357" y="774" text-anchor="middle" class="badge" fill="#7ee787">执行模型家族</text>
  <text x="568" y="792" text-anchor="middle" class="cardTitle">Codex Desktop 平面</text><text x="568" y="822" text-anchor="middle" class="body">可见原生子任务 + 根对话↔子 Agent 通信</text>
  <rect x="930" y="734" width="605" height="120" rx="16" fill="url(#execFill)" stroke="#3fb950" stroke-width="2" filter="url(#shadow)"/>
  <rect x="954" y="754" width="137" height="28" rx="14" fill="#238636" opacity=".34"/><text x="1022" y="774" text-anchor="middle" class="badge" fill="#7ee787">执行模型家族</text>
  <text x="1233" y="792" text-anchor="middle" class="cardTitle">受监督 Headless 平面</text><text x="1233" y="822" text-anchor="middle" class="body">codex exec + 隔离 worktree + 生命周期 roster</text>
  <path class="edge" d="M568 854 V886 H900"/><path class="edge" d="M1233 854 V886 H900"/>

  <text x="70" y="932" class="layer">证据层</text>
  <rect x="265" y="886" width="1270" height="88" rx="16" fill="#151b24" stroke="#475569"/>
  <text x="900" y="920" text-anchor="middle" class="cardTitle">L0/L1 机械证据</text>
  <text x="900" y="950" text-anchor="middle" class="body">产物 + 测试 + diff 边界 + schema + 生命周期证据——Agent 自报 PASS 不具备效力</text>
  <path class="edge" d="M900 974 V1002"/>

  <text x="70" y="1058" class="layer">验证层</text>
  <rect x="510" y="1002" width="780" height="104" rx="16" fill="url(#reviewFill)" stroke="#bc8cff" stroke-width="2" filter="url(#shadow)"/>
  <rect x="534" y="1021" width="137" height="28" rx="14" fill="#8957e5" opacity=".35"/><text x="602" y="1041" text-anchor="middle" class="badge" fill="#d2a8ff">审查模型家族</text>
  <text x="900" y="1042" text-anchor="middle" class="cardTitle">L2 独立验证器</text>
  <text x="900" y="1076" text-anchor="middle" class="body">PASS → 集成 · REDO → 返回执行 · ESCALATE → L3 有界裁决</text>
  <path class="edgeRed" d="M510 1054 H318 V794 H265"/><text x="330" y="1033" class="small" fill="#ff7b72">重做</text>
  <rect x="1360" y="994" width="340" height="120" rx="16" fill="#2a171a" stroke="#ff7b72"/>
  <text x="1530" y="1032" text-anchor="middle" class="cardTitle">L3 异常裁决</text><text x="1530" y="1064" text-anchor="middle" class="body">仅处理重大不确定性</text><text x="1530" y="1090" text-anchor="middle" class="small">有界返回 Sol</text>
  <path class="edgeRed" d="M1290 1054 H1360"/><text x="1297" y="1033" class="small" fill="#ff7b72">升级</text><path class="edgeRed" d="M1700 1054 H1740 V396 H1535"/>
  <path class="edgeGreen" d="M900 1106 V1134"/>

  <text x="70" y="1182" class="layer">集成层</text>
  <rect x="265" y="1134" width="615" height="88" rx="16" fill="#151b24" stroke="#56d364"/>
  <text x="572" y="1168" text-anchor="middle" class="cardTitle">串行集成队列</text><text x="572" y="1198" text-anchor="middle" class="body">由单一受控写入者合并已验收产物</text>
  <rect x="920" y="1134" width="615" height="88" rx="16" fill="url(#reviewFill)" stroke="#bc8cff"/>
  <text x="1227" y="1168" text-anchor="middle" class="cardTitle">发布复审</text><text x="1227" y="1198" text-anchor="middle" class="body">反证式检查；没有发布权限</text>
  <path class="edgeGreen" d="M880 1178 H920"/><path class="edgeGreen" d="M1227 1222 V1250"/>

  <text x="70" y="1298" class="layer">发布层</text>
  <rect x="510" y="1250" width="780" height="90" rx="16" fill="#20252d" stroke="#f0f6fc" stroke-width="2" filter="url(#shadow)"/>
  <text x="900" y="1286" text-anchor="middle" class="cardTitle">L4 人类维护者</text><text x="900" y="1317" text-anchor="middle" class="body">唯一可以触发合并或发布的角色</text>

  <text x="70" y="1430" class="layer">观察层</text>
  <rect x="265" y="1370" width="620" height="112" rx="16" fill="#151b24" stroke="#6e7681"/>
  <text x="575" y="1405" text-anchor="middle" class="cardTitle">证据存储</text><text x="575" y="1437" text-anchor="middle" class="body">events · ledgers · reports · native/exec rosters</text><text x="575" y="1463" text-anchor="middle" class="small">实际模型 + token 计量 + 语义任务映射</text>
  <rect x="935" y="1370" width="600" height="112" rx="16" fill="#1d1a35" stroke="#8b7cf6" stroke-width="2" filter="url(#shadow)"/>
  <text x="1235" y="1405" text-anchor="middle" class="cardTitle">Agent 监测 Web UI :8765</text><text x="1235" y="1437" text-anchor="middle" class="body">任务 · 模型 · 平面 · 健康 · 补位缺口</text><text x="1235" y="1463" text-anchor="middle" class="small">只读 · 不调度 · 不裁决 · 不授权发布</text>
  <path class="edgePurple" d="M885 1426 H935"/>

  <line x1="70" y1="1520" x2="1730" y2="1520" stroke="#30363d"/>
  <text x="70" y="1554" class="small">LLM 只承担需要判断的规划、独立验证与有界异常裁决。</text>
  <text x="70" y="1581" class="small">等待、轮询、计数、重试、补位和生命周期迁移由脚本与状态机完成。</text>
  <g transform="translate(1175 1540)"><circle cx="0" cy="8" r="7" fill="#62686d"/><text x="18" y="14" class="small">协调</text><circle cx="105" cy="8" r="7" fill="#5a6b60"/><text x="123" y="14" class="small">执行</text><circle cx="210" cy="8" r="7" fill="#6b6068"/><text x="228" y="14" class="small">审查</text><circle cx="315" cy="8" r="7" fill="#8f8b87"/><text x="333" y="14" class="small">人类发布权</text></g>
</svg>
